<svg id="visual" viewBox="0 0 960 180" width="960" height="180" xmlns="http://www.w3.org/2000/svg" xmlns:xlink="http://www.w3.org/1999/xlink" version="1.1"><rect x="0" y="0" width="960" height="180" fill="#cf0000"></rect><path d="M0 102L22.8 101.8C45.7 101.7 91.3 101.3 137 101C182.7 100.7 228.3 100.3 274 99.7C319.7 99 365.3 98 411.2 100.2C457 102.3 503 107.7 548.8 110.2C594.7 112.7 640.3 112.3 686 112C731.7 111.7 777.3 111.3 823 111.5C868.7 111.7 914.3 112.3 937.2 112.7L960 113L960 0L937.2 0C914.3 0 868.7 0 823 0C777.3 0 731.7 0 686 0C640.3 0 594.7 0 548.8 0C503 0 457 0 411.2 0C365.3 0 319.7 0 274 0C228.3 0 182.7 0 137 0C91.3 0 45.7 0 22.8 0L0 0Z" fill="#cf0028"></path><path d="M0 68L22.8 74.2C45.7 80.3 91.3 92.7 137 94.5C182.7 96.3 228.3 87.7 274 86.7C319.7 85.7 365.3 92.3 411.2 94.5C457 96.7 503 94.3 548.8 91.5C594.7 88.7 640.3 85.3 686 83.2C731.7 81 777.3 80 823 81.3C868.7 82.7 914.3 86.3 937.2 88.2L960 90L960 0L937.2 0C914.3 0 868.7 0 823 0C777.3 0 731.7 0 686 0C640.3 0 594.7 0 548.8 0C503 0 457 0 411.2 0C365.3 0 319.7 0 274 0C228.3 0 182.7 0 137 0C91.3 0 45.7 0 22.8 0L0 0Z" fill="#dc0037"></path><path d="M0 71L22.8 71.5C45.7 72 91.3 73 137 69.3C182.7 65.7 228.3 57.3 274 55.7C319.7 54 365.3 59 411.2 65.2C457 71.3 503 78.7 548.8 78.3C594.7 78 640.3 70 686 67C731.7 64 777.3 66 823 68.7C868.7 71.3 914.3 74.7 937.2 76.3L960 78L960 0L937.2 0C914.3 0 868.7 0 823 0C777.3 0 731.7 0 686 0C640.3 0 594.7 0 548.8 0C503 0 457 0 411.2 0C365.3 0 319.7 0 274 0C228.3 0 182.7 0 137 0C91.3 0 45.7 0 22.8 0L0 0Z" fill="#e80046"></path><path d="M0 44L22.8 43.5C45.7 43 91.3 42 137 41.7C182.7 41.3 228.3 41.7 274 42C319.7 42.3 365.3 42.7 411.2 45.2C457 47.7 503 52.3 548.8 54C594.7 55.7 640.3 54.3 686 50.2C731.7 46 777.3 39 823 37.7C868.7 36.3 914.3 40.7 937.2 42.8L960 45L960 0L937.2 0C914.3 0 868.7 0 823 0C777.3 0 731.7 0 686 0C640.3 0 594.7 0 548.8 0C503 0 457 0 411.2 0C365.3 0 319.7 0 274 0C228.3 0 182.7 0 137 0C91.3 0 45.7 0 22.8 0L0 0Z" fill="#f40056"></path><path d="M0 17L22.8 20.3C45.7 23.7 91.3 30.3 137 30.8C182.7 31.3 228.3 25.7 274 24.7C319.7 23.7 365.3 27.3 411.2 27.7C457 28 503 25 548.8 25.7C594.7 26.3 640.3 30.7 686 32.7C731.7 34.7 777.3 34.3 823 31.8C868.7 29.3 914.3 24.7 937.2 22.3L960 20L960 0L937.2 0C914.3 0 868.7 0 823 0C777.3 0 731.7 0 686 0C640.3 0 594.7 0 548.8 0C503 0 457 0 411.2 0C365.3 0 319.7 0 274 0C228.3 0 182.7 0 137 0C91.3 0 45.7 0 22.8 0L0 0Z" fill="#ff0066"></path></svg>