<svg id="visual" viewBox="0 0 960 180" width="960" height="180" xmlns="http://www.w3.org/2000/svg" xmlns:xlink="http://www.w3.org/1999/xlink" version="1.1"><rect x="0" y="0" width="960" height="180" fill="#cf0000"></rect><path d="M0 119L7.7 118.5C15.3 118 30.7 117 45.8 116.8C61 116.7 76 117.3 91.2 116.5C106.3 115.7 121.7 113.3 137 114.3C152.3 115.3 167.7 119.7 183 122C198.3 124.3 213.7 124.7 228.8 123.2C244 121.7 259 118.3 274.2 117.7C289.3 117 304.7 119 320 120.5C335.3 122 350.7 123 365.8 122.7C381 122.3 396 120.7 411.2 119.5C426.3 118.3 441.7 117.7 457 116.3C472.3 115 487.7 113 503 112.3C518.3 111.7 533.7 112.3 548.8 113C564 113.7 579 114.3 594.2 116C609.3 117.7 624.7 120.3 640 120.2C655.3 120 670.7 117 685.8 116C701 115 716 116 731.2 116.7C746.3 117.3 761.7 117.7 777 118.3C792.3 119 807.7 120 823 118.8C838.3 117.7 853.7 114.3 868.8 114.8C884 115.3 899 119.7 914.2 119.7C929.3 119.7 944.7 115.3 952.3 113.2L960 111L960 0L952.3 0C944.7 0 929.3 0 914.2 0C899 0 884 0 868.8 0C853.7 0 838.3 0 823 0C807.7 0 792.3 0 777 0C761.7 0 746.3 0 731.2 0C716 0 701 0 685.8 0C670.7 0 655.3 0 640 0C624.7 0 609.3 0 594.2 0C579 0 564 0 548.8 0C533.7 0 518.3 0 503 0C487.7 0 472.3 0 457 0C441.7 0 426.3 0 411.2 0C396 0 381 0 365.8 0C350.7 0 335.3 0 320 0C304.7 0 289.3 0 274.2 0C259 0 244 0 228.8 0C213.7 0 198.3 0 183 0C167.7 0 152.3 0 137 0C121.7 0 106.3 0 91.2 0C76 0 61 0 45.8 0C30.7 0 15.3 0 7.7 0L0 0Z" fill="#800000"></path><path d="M0 98L7.7 99C15.3 100 30.7 102 45.8 102.5C61 103 76 102 91.2 101.2C106.3 100.3 121.7 99.7 137 98.8C152.3 98 167.7 97 183 96C198.3 95 213.7 94 228.8 93.8C244 93.7 259 94.3 274.2 95.7C289.3 97 304.7 99 320 100.5C335.3 102 350.7 103 365.8 102.3C381 101.7 396 99.3 411.2 98.3C426.3 97.3 441.7 97.7 457 97.7C472.3 97.7 487.7 97.3 503 98.3C518.3 99.3 533.7 101.7 548.8 101.2C564 100.7 579 97.3 594.2 96.3C609.3 95.3 624.7 96.7 640 96.3C655.3 96 670.7 94 685.8 93.8C701 93.7 716 95.3 731.2 97.2C746.3 99 761.7 101 777 100C792.3 99 807.7 95 823 94C838.3 93 853.7 95 868.8 96C884 97 899 97 914.2 96.5C929.3 96 944.7 95 952.3 94.5L960 94L960 0L952.3 0C944.7 0 929.3 0 914.2 0C899 0 884 0 868.8 0C853.7 0 838.3 0 823 0C807.7 0 792.3 0 777 0C761.7 0 746.3 0 731.2 0C716 0 701 0 685.8 0C670.7 0 655.3 0 640 0C624.7 0 609.3 0 594.2 0C579 0 564 0 548.8 0C533.7 0 518.3 0 503 0C487.7 0 472.3 0 457 0C441.7 0 426.3 0 411.2 0C396 0 381 0 365.8 0C350.7 0 335.3 0 320 0C304.7 0 289.3 0 274.2 0C259 0 244 0 228.8 0C213.7 0 198.3 0 183 0C167.7 0 152.3 0 137 0C121.7 0 106.3 0 91.2 0C76 0 61 0 45.8 0C30.7 0 15.3 0 7.7 0L0 0Z" fill="#710001"></path><path d="M0 76L7.7 76.7C15.3 77.3 30.7 78.7 45.8 79.8C61 81 76 82 91.2 82.5C106.3 83 121.7 83 137 81.2C152.3 79.3 167.7 75.7 183 74.3C198.3 73 213.7 74 228.8 75.5C244 77 259 79 274.2 79.5C289.3 80 304.7 79 320 79C335.3 79 350.7 80 365.8 81C381 82 396 83 411.2 82.7C426.3 82.3 441.7 80.7 457 80.7C472.3 80.7 487.7 82.3 503 81.8C518.3 81.3 533.7 78.7 548.8 76.8C564 75 579 74 594.2 75C609.3 76 624.7 79 640 79.5C655.3 80 670.7 78 685.8 76.7C701 75.3 716 74.7 731.2 74.8C746.3 75 761.7 76 777 77.7C792.3 79.3 807.7 81.7 823 81.8C838.3 82 853.7 80 868.8 79.3C884 78.7 899 79.3 914.2 80.3C929.3 81.3 944.7 82.7 952.3 83.3L960 84L960 0L952.3 0C944.7 0 929.3 0 914.2 0C899 0 884 0 868.8 0C853.7 0 838.3 0 823 0C807.7 0 792.3 0 777 0C761.7 0 746.3 0 731.2 0C716 0 701 0 685.8 0C670.7 0 655.3 0 640 0C624.7 0 609.3 0 594.2 0C579 0 564 0 548.8 0C533.7 0 518.3 0 503 0C487.7 0 472.3 0 457 0C441.7 0 426.3 0 411.2 0C396 0 381 0 365.8 0C350.7 0 335.3 0 320 0C304.7 0 289.3 0 274.2 0C259 0 244 0 228.8 0C213.7 0 198.3 0 183 0C167.7 0 152.3 0 137 0C121.7 0 106.3 0 91.2 0C76 0 61 0 45.8 0C30.7 0 15.3 0 7.7 0L0 0Z" fill="#630001"></path><path d="M0 64L7.7 62.3C15.3 60.7 30.7 57.3 45.8 56.8C61 56.3 76 58.7 91.2 59C106.3 59.3 121.7 57.7 137 58.2C152.3 58.7 167.7 61.3 183 61.7C198.3 62 213.7 60 228.8 59C244 58 259 58 274.2 58C289.3 58 304.7 58 320 58.3C335.3 58.7 350.7 59.3 365.8 60.5C381 61.7 396 63.3 411.2 63.8C426.3 64.3 441.7 63.7 457 62C472.3 60.3 487.7 57.7 503 57.7C518.3 57.7 533.7 60.3 548.8 62C564 63.7 579 64.3 594.2 63C609.3 61.7 624.7 58.3 640 56.3C655.3 54.3 670.7 53.7 685.8 54C701 54.3 716 55.7 731.2 57.7C746.3 59.7 761.7 62.3 777 63.2C792.3 64 807.7 63 823 63C838.3 63 853.7 64 868.8 64.3C884 64.7 899 64.3 914.2 64C929.3 63.7 944.7 63.3 952.3 63.2L960 63L960 0L952.3 0C944.7 0 929.3 0 914.2 0C899 0 884 0 868.8 0C853.7 0 838.3 0 823 0C807.7 0 792.3 0 777 0C761.7 0 746.3 0 731.2 0C716 0 701 0 685.8 0C670.7 0 655.3 0 640 0C624.7 0 609.3 0 594.2 0C579 0 564 0 548.8 0C533.7 0 518.3 0 503 0C487.7 0 472.3 0 457 0C441.7 0 426.3 0 411.2 0C396 0 381 0 365.8 0C350.7 0 335.3 0 320 0C304.7 0 289.3 0 274.2 0C259 0 244 0 228.8 0C213.7 0 198.3 0 183 0C167.7 0 152.3 0 137 0C121.7 0 106.3 0 91.2 0C76 0 61 0 45.8 0C30.7 0 15.3 0 7.7 0L0 0Z" fill="#530000"></path><path d="M0 33L7.7 35C15.3 37 30.7 41 45.8 42.8C61 44.7 76 44.3 91.2 43.5C106.3 42.7 121.7 41.3 137 41.3C152.3 41.3 167.7 42.7 183 42C198.3 41.3 213.7 38.7 228.8 37.8C244 37 259 38 274.2 38C289.3 38 304.7 37 320 36.7C335.3 36.3 350.7 36.7 365.8 36.3C381 36 396 35 411.2 36C426.3 37 441.7 40 457 41.8C472.3 43.7 487.7 44.3 503 44.7C518.3 45 533.7 45 548.8 44.2C564 43.3 579 41.7 594.2 40.2C609.3 38.7 624.7 37.3 640 37.5C655.3 37.7 670.7 39.3 685.8 39.2C701 39 716 37 731.2 36.8C746.3 36.7 761.7 38.3 777 38.3C792.3 38.3 807.7 36.7 823 36.3C838.3 36 853.7 37 868.8 37.2C884 37.3 899 36.7 914.2 37.5C929.3 38.3 944.7 40.7 952.3 41.8L960 43L960 0L952.3 0C944.7 0 929.3 0 914.2 0C899 0 884 0 868.8 0C853.7 0 838.3 0 823 0C807.7 0 792.3 0 777 0C761.7 0 746.3 0 731.2 0C716 0 701 0 685.8 0C670.7 0 655.3 0 640 0C624.7 0 609.3 0 594.2 0C579 0 564 0 548.8 0C533.7 0 518.3 0 503 0C487.7 0 472.3 0 457 0C441.7 0 426.3 0 411.2 0C396 0 381 0 365.8 0C350.7 0 335.3 0 320 0C304.7 0 289.3 0 274.2 0C259 0 244 0 228.8 0C213.7 0 198.3 0 183 0C167.7 0 152.3 0 137 0C121.7 0 106.3 0 91.2 0C76 0 61 0 45.8 0C30.7 0 15.3 0 7.7 0L0 0Z" fill="#430000"></path><path d="M0 20L7.7 19.5C15.3 19 30.7 18 45.8 17.8C61 17.7 76 18.3 91.2 19.2C106.3 20 121.7 21 137 21C152.3 21 167.7 20 183 19.2C198.3 18.3 213.7 17.7 228.8 17.5C244 17.3 259 17.7 274.2 17.2C289.3 16.7 304.7 15.3 320 16.5C335.3 17.7 350.7 21.3 365.8 22.5C381 23.7 396 22.3 411.2 22.2C426.3 22 441.7 23 457 22.8C472.3 22.7 487.7 21.3 503 21.2C518.3 21 533.7 22 548.8 22.8C564 23.7 579 24.3 594.2 23.8C609.3 23.3 624.7 21.7 640 20.7C655.3 19.7 670.7 19.3 685.8 20.2C701 21 716 23 731.2 22.8C746.3 22.7 761.7 20.3 777 19.2C792.3 18 807.7 18 823 17.3C838.3 16.7 853.7 15.3 868.8 15.3C884 15.3 899 16.7 914.2 17.5C929.3 18.3 944.7 18.7 952.3 18.8L960 19L960 0L952.3 0C944.7 0 929.3 0 914.2 0C899 0 884 0 868.8 0C853.7 0 838.3 0 823 0C807.7 0 792.3 0 777 0C761.7 0 746.3 0 731.2 0C716 0 701 0 685.8 0C670.7 0 655.3 0 640 0C624.7 0 609.3 0 594.2 0C579 0 564 0 548.8 0C533.7 0 518.3 0 503 0C487.7 0 472.3 0 457 0C441.7 0 426.3 0 411.2 0C396 0 381 0 365.8 0C350.7 0 335.3 0 320 0C304.7 0 289.3 0 274.2 0C259 0 244 0 228.8 0C213.7 0 198.3 0 183 0C167.7 0 152.3 0 137 0C121.7 0 106.3 0 91.2 0C76 0 61 0 45.8 0C30.7 0 15.3 0 7.7 0L0 0Z" fill="#000000"></path></svg>