<svg id="visual" viewBox="0 0 960 180" width="960" height="180" xmlns="http://www.w3.org/2000/svg" xmlns:xlink="http://www.w3.org/1999/xlink" version="1.1"><rect x="0" y="0" width="960" height="180" fill="#000000"></rect><path d="M0 116L16 116C32 116 64 116 96 116.8C128 117.7 160 119.3 192 119C224 118.7 256 116.3 288 117.5C320 118.7 352 123.3 384 122.3C416 121.3 448 114.7 480 115.2C512 115.7 544 123.3 576 129C608 134.7 640 138.3 672 138.7C704 139 736 136 768 136.7C800 137.3 832 141.7 864 141.3C896 141 928 136 944 133.5L960 131L960 0L944 0C928 0 896 0 864 0C832 0 800 0 768 0C736 0 704 0 672 0C640 0 608 0 576 0C544 0 512 0 480 0C448 0 416 0 384 0C352 0 320 0 288 0C256 0 224 0 192 0C160 0 128 0 96 0C64 0 32 0 16 0L0 0Z" fill="#000011"></path><path d="M0 102L16 103.7C32 105.3 64 108.7 96 111.3C128 114 160 116 192 116.7C224 117.3 256 116.7 288 114.7C320 112.7 352 109.3 384 108.8C416 108.3 448 110.7 480 108C512 105.3 544 97.7 576 97.3C608 97 640 104 672 108.7C704 113.3 736 115.7 768 113.3C800 111 832 104 864 100C896 96 928 95 944 94.5L960 94L960 0L944 0C928 0 896 0 864 0C832 0 800 0 768 0C736 0 704 0 672 0C640 0 608 0 576 0C544 0 512 0 480 0C448 0 416 0 384 0C352 0 320 0 288 0C256 0 224 0 192 0C160 0 128 0 96 0C64 0 32 0 16 0L0 0Z" fill="#04011f"></path><path d="M0 81L16 79.5C32 78 64 75 96 72.3C128 69.7 160 67.3 192 69.8C224 72.3 256 79.7 288 82.3C320 85 352 83 384 83.3C416 83.7 448 86.3 480 85.8C512 85.3 544 81.7 576 78C608 74.3 640 70.7 672 73.2C704 75.7 736 84.3 768 83.8C800 83.3 832 73.7 864 73.5C896 73.3 928 82.7 944 87.3L960 92L960 0L944 0C928 0 896 0 864 0C832 0 800 0 768 0C736 0 704 0 672 0C640 0 608 0 576 0C544 0 512 0 480 0C448 0 416 0 384 0C352 0 320 0 288 0C256 0 224 0 192 0C160 0 128 0 96 0C64 0 32 0 16 0L0 0Z" fill="#05012c"></path><path d="M0 43L16 44.7C32 46.3 64 49.7 96 53C128 56.3 160 59.7 192 61.8C224 64 256 65 288 63.8C320 62.7 352 59.3 384 55.8C416 52.3 448 48.7 480 49.7C512 50.7 544 56.3 576 57.2C608 58 640 54 672 53.2C704 52.3 736 54.7 768 56C800 57.3 832 57.7 864 58.8C896 60 928 62 944 63L960 64L960 0L944 0C928 0 896 0 864 0C832 0 800 0 768 0C736 0 704 0 672 0C640 0 608 0 576 0C544 0 512 0 480 0C448 0 416 0 384 0C352 0 320 0 288 0C256 0 224 0 192 0C160 0 128 0 96 0C64 0 32 0 16 0L0 0Z" fill="#030139"></path><path d="M0 34L16 31.8C32 29.7 64 25.3 96 22.5C128 19.7 160 18.3 192 20.7C224 23 256 29 288 32.5C320 36 352 37 384 37.7C416 38.3 448 38.7 480 38C512 37.3 544 35.7 576 33.5C608 31.3 640 28.7 672 29.8C704 31 736 36 768 36.3C800 36.7 832 32.3 864 30.8C896 29.3 928 30.7 944 31.3L960 32L960 0L944 0C928 0 896 0 864 0C832 0 800 0 768 0C736 0 704 0 672 0C640 0 608 0 576 0C544 0 512 0 480 0C448 0 416 0 384 0C352 0 320 0 288 0C256 0 224 0 192 0C160 0 128 0 96 0C64 0 32 0 16 0L0 0Z" fill="#000045"></path></svg>