<svg id="visual" viewBox="0 0 960 180" width="960" height="180" xmlns="http://www.w3.org/2000/svg" xmlns:xlink="http://www.w3.org/1999/xlink" version="1.1"><rect x="0" y="0" width="960" height="180" fill="#000000"></rect><path d="M0 117L7.7 116.7C15.3 116.3 30.7 115.7 45.8 116C61 116.3 76 117.7 91.2 115.5C106.3 113.3 121.7 107.7 137 107.7C152.3 107.7 167.7 113.3 183 114.5C198.3 115.7 213.7 112.3 228.8 111.7C244 111 259 113 274.2 112.8C289.3 112.7 304.7 110.3 320 107.8C335.3 105.3 350.7 102.7 365.8 103.2C381 103.7 396 107.3 411.2 109.2C426.3 111 441.7 111 457 109.5C472.3 108 487.7 105 503 104C518.3 103 533.7 104 548.8 104.7C564 105.3 579 105.7 594.2 106.7C609.3 107.7 624.7 109.3 640 109.2C655.3 109 670.7 107 685.8 108.3C701 109.7 716 114.3 731.2 115.8C746.3 117.3 761.7 115.7 777 113C792.3 110.3 807.7 106.7 823 104.7C838.3 102.7 853.7 102.3 868.8 103.3C884 104.3 899 106.7 914.2 107.7C929.3 108.7 944.7 108.3 952.3 108.2L960 108L960 0L952.3 0C944.7 0 929.3 0 914.2 0C899 0 884 0 868.8 0C853.7 0 838.3 0 823 0C807.7 0 792.3 0 777 0C761.7 0 746.3 0 731.2 0C716 0 701 0 685.8 0C670.7 0 655.3 0 640 0C624.7 0 609.3 0 594.2 0C579 0 564 0 548.8 0C533.7 0 518.3 0 503 0C487.7 0 472.3 0 457 0C441.7 0 426.3 0 411.2 0C396 0 381 0 365.8 0C350.7 0 335.3 0 320 0C304.7 0 289.3 0 274.2 0C259 0 244 0 228.8 0C213.7 0 198.3 0 183 0C167.7 0 152.3 0 137 0C121.7 0 106.3 0 91.2 0C76 0 61 0 45.8 0C30.7 0 15.3 0 7.7 0L0 0Z" fill="#94003b"></path><path d="M0 85L7.7 85.2C15.3 85.3 30.7 85.7 45.8 84.2C61 82.7 76 79.3 91.2 77.7C106.3 76 121.7 76 137 76.2C152.3 76.3 167.7 76.7 183 76.2C198.3 75.7 213.7 74.3 228.8 74C244 73.7 259 74.3 274.2 76C289.3 77.7 304.7 80.3 320 81.3C335.3 82.3 350.7 81.7 365.8 81.7C381 81.7 396 82.3 411.2 81.3C426.3 80.3 441.7 77.7 457 77C472.3 76.3 487.7 77.7 503 78.3C518.3 79 533.7 79 548.8 78C564 77 579 75 594.2 74.7C609.3 74.3 624.7 75.7 640 75.8C655.3 76 670.7 75 685.8 75.8C701 76.7 716 79.3 731.2 82.2C746.3 85 761.7 88 777 89.7C792.3 91.3 807.7 91.7 823 89.5C838.3 87.3 853.7 82.7 868.8 81C884 79.3 899 80.7 914.2 80.2C929.3 79.7 944.7 77.3 952.3 76.2L960 75L960 0L952.3 0C944.7 0 929.3 0 914.2 0C899 0 884 0 868.8 0C853.7 0 838.3 0 823 0C807.7 0 792.3 0 777 0C761.7 0 746.3 0 731.2 0C716 0 701 0 685.8 0C670.7 0 655.3 0 640 0C624.7 0 609.3 0 594.2 0C579 0 564 0 548.8 0C533.7 0 518.3 0 503 0C487.7 0 472.3 0 457 0C441.7 0 426.3 0 411.2 0C396 0 381 0 365.8 0C350.7 0 335.3 0 320 0C304.7 0 289.3 0 274.2 0C259 0 244 0 228.8 0C213.7 0 198.3 0 183 0C167.7 0 152.3 0 137 0C121.7 0 106.3 0 91.2 0C76 0 61 0 45.8 0C30.7 0 15.3 0 7.7 0L0 0Z" fill="#b60049"></path><path d="M0 58L7.7 58.2C15.3 58.3 30.7 58.7 45.8 59.7C61 60.7 76 62.3 91.2 62.7C106.3 63 121.7 62 137 61.3C152.3 60.7 167.7 60.3 183 58.5C198.3 56.7 213.7 53.3 228.8 53.2C244 53 259 56 274.2 58.2C289.3 60.3 304.7 61.7 320 61.7C335.3 61.7 350.7 60.3 365.8 57.7C381 55 396 51 411.2 49.7C426.3 48.3 441.7 49.7 457 50.2C472.3 50.7 487.7 50.3 503 50.8C518.3 51.3 533.7 52.7 548.8 53.5C564 54.3 579 54.7 594.2 53.5C609.3 52.3 624.7 49.7 640 49.5C655.3 49.3 670.7 51.7 685.8 54C701 56.3 716 58.7 731.2 59.7C746.3 60.7 761.7 60.3 777 58.3C792.3 56.3 807.7 52.7 823 50.8C838.3 49 853.7 49 868.8 51.2C884 53.3 899 57.7 914.2 59.7C929.3 61.7 944.7 61.3 952.3 61.2L960 61L960 0L952.3 0C944.7 0 929.3 0 914.2 0C899 0 884 0 868.8 0C853.7 0 838.3 0 823 0C807.7 0 792.3 0 777 0C761.7 0 746.3 0 731.2 0C716 0 701 0 685.8 0C670.7 0 655.3 0 640 0C624.7 0 609.3 0 594.2 0C579 0 564 0 548.8 0C533.7 0 518.3 0 503 0C487.7 0 472.3 0 457 0C441.7 0 426.3 0 411.2 0C396 0 381 0 365.8 0C350.7 0 335.3 0 320 0C304.7 0 289.3 0 274.2 0C259 0 244 0 228.8 0C213.7 0 198.3 0 183 0C167.7 0 152.3 0 137 0C121.7 0 106.3 0 91.2 0C76 0 61 0 45.8 0C30.7 0 15.3 0 7.7 0L0 0Z" fill="#da0057"></path><path d="M0 29L7.7 28C15.3 27 30.7 25 45.8 23.5C61 22 76 21 91.2 21C106.3 21 121.7 22 137 22.3C152.3 22.7 167.7 22.3 183 23C198.3 23.7 213.7 25.3 228.8 26.3C244 27.3 259 27.7 274.2 27.3C289.3 27 304.7 26 320 24.8C335.3 23.7 350.7 22.3 365.8 22.3C381 22.3 396 23.7 411.2 25.5C426.3 27.3 441.7 29.7 457 31.3C472.3 33 487.7 34 503 34.7C518.3 35.3 533.7 35.7 548.8 35.7C564 35.7 579 35.3 594.2 34C609.3 32.7 624.7 30.3 640 29.5C655.3 28.7 670.7 29.3 685.8 29.5C701 29.7 716 29.3 731.2 28.7C746.3 28 761.7 27 777 26.5C792.3 26 807.7 26 823 25.8C838.3 25.7 853.7 25.3 868.8 26.8C884 28.3 899 31.7 914.2 33.5C929.3 35.3 944.7 35.7 952.3 35.8L960 36L960 0L952.3 0C944.7 0 929.3 0 914.2 0C899 0 884 0 868.8 0C853.7 0 838.3 0 823 0C807.7 0 792.3 0 777 0C761.7 0 746.3 0 731.2 0C716 0 701 0 685.8 0C670.7 0 655.3 0 640 0C624.7 0 609.3 0 594.2 0C579 0 564 0 548.8 0C533.7 0 518.3 0 503 0C487.7 0 472.3 0 457 0C441.7 0 426.3 0 411.2 0C396 0 381 0 365.8 0C350.7 0 335.3 0 320 0C304.7 0 289.3 0 274.2 0C259 0 244 0 228.8 0C213.7 0 198.3 0 183 0C167.7 0 152.3 0 137 0C121.7 0 106.3 0 91.2 0C76 0 61 0 45.8 0C30.7 0 15.3 0 7.7 0L0 0Z" fill="#ff0066"></path></svg>