<svg id="visual" viewBox="0 0 960 180" width="960" height="180" xmlns="http://www.w3.org/2000/svg" xmlns:xlink="http://www.w3.org/1999/xlink" version="1.1"><rect x="0" y="0" width="960" height="180" fill="#000045"></rect><path d="M0 119L14.5 118.8C29 118.7 58 118.3 87.2 118.8C116.3 119.3 145.7 120.7 174.8 120.8C204 121 233 120 262 120.5C291 121 320 123 349 119.8C378 116.7 407 108.3 436.2 106.3C465.3 104.3 494.7 108.7 523.8 113.5C553 118.3 582 123.7 611 124.3C640 125 669 121 698 120C727 119 756 121 785.2 118.3C814.3 115.7 843.7 108.3 872.8 108C902 107.7 931 114.3 945.5 117.7L960 121L960 0L945.5 0C931 0 902 0 872.8 0C843.7 0 814.3 0 785.2 0C756 0 727 0 698 0C669 0 640 0 611 0C582 0 553 0 523.8 0C494.7 0 465.3 0 436.2 0C407 0 378 0 349 0C320 0 291 0 262 0C233 0 204 0 174.8 0C145.7 0 116.3 0 87.2 0C58 0 29 0 14.5 0L0 0Z" fill="#160045"></path><path d="M0 98L14.5 98.8C29 99.7 58 101.3 87.2 102.7C116.3 104 145.7 105 174.8 107C204 109 233 112 262 107.8C291 103.7 320 92.3 349 89.8C378 87.3 407 93.7 436.2 94.3C465.3 95 494.7 90 523.8 91.7C553 93.3 582 101.7 611 105C640 108.3 669 106.7 698 104.8C727 103 756 101 785.2 101.2C814.3 101.3 843.7 103.7 872.8 103.5C902 103.3 931 100.7 945.5 99.3L960 98L960 0L945.5 0C931 0 902 0 872.8 0C843.7 0 814.3 0 785.2 0C756 0 727 0 698 0C669 0 640 0 611 0C582 0 553 0 523.8 0C494.7 0 465.3 0 436.2 0C407 0 378 0 349 0C320 0 291 0 262 0C233 0 204 0 174.8 0C145.7 0 116.3 0 87.2 0C58 0 29 0 14.5 0L0 0Z" fill="#3f004a"></path><path d="M0 97L14.5 94.5C29 92 58 87 87.2 83.7C116.3 80.3 145.7 78.7 174.8 77.2C204 75.7 233 74.3 262 77.3C291 80.3 320 87.7 349 87.5C378 87.3 407 79.7 436.2 77C465.3 74.3 494.7 76.7 523.8 75.8C553 75 582 71 611 70.3C640 69.7 669 72.3 698 75.3C727 78.3 756 81.7 785.2 84.8C814.3 88 843.7 91 872.8 88.5C902 86 931 78 945.5 74L960 70L960 0L945.5 0C931 0 902 0 872.8 0C843.7 0 814.3 0 785.2 0C756 0 727 0 698 0C669 0 640 0 611 0C582 0 553 0 523.8 0C494.7 0 465.3 0 436.2 0C407 0 378 0 349 0C320 0 291 0 262 0C233 0 204 0 174.8 0C145.7 0 116.3 0 87.2 0C58 0 29 0 14.5 0L0 0Z" fill="#60004b"></path><path d="M0 79L14.5 78.8C29 78.7 58 78.3 87.2 76C116.3 73.7 145.7 69.3 174.8 69.5C204 69.7 233 74.3 262 77.3C291 80.3 320 81.7 349 82.2C378 82.7 407 82.3 436.2 78.7C465.3 75 494.7 68 523.8 64.5C553 61 582 61 611 64.5C640 68 669 75 698 74.2C727 73.3 756 64.7 785.2 62.3C814.3 60 843.7 64 872.8 67.7C902 71.3 931 74.7 945.5 76.3L960 78L960 0L945.5 0C931 0 902 0 872.8 0C843.7 0 814.3 0 785.2 0C756 0 727 0 698 0C669 0 640 0 611 0C582 0 553 0 523.8 0C494.7 0 465.3 0 436.2 0C407 0 378 0 349 0C320 0 291 0 262 0C233 0 204 0 174.8 0C145.7 0 116.3 0 87.2 0C58 0 29 0 14.5 0L0 0Z" fill="#7d0048"></path><path d="M0 69L14.5 66.8C29 64.7 58 60.3 87.2 57.7C116.3 55 145.7 54 174.8 53.2C204 52.3 233 51.7 262 53.2C291 54.7 320 58.3 349 60.3C378 62.3 407 62.7 436.2 63.2C465.3 63.7 494.7 64.3 523.8 61.5C553 58.7 582 52.3 611 49.7C640 47 669 48 698 51.2C727 54.3 756 59.7 785.2 58.7C814.3 57.7 843.7 50.3 872.8 49.7C902 49 931 55 945.5 58L960 61L960 0L945.5 0C931 0 902 0 872.8 0C843.7 0 814.3 0 785.2 0C756 0 727 0 698 0C669 0 640 0 611 0C582 0 553 0 523.8 0C494.7 0 465.3 0 436.2 0C407 0 378 0 349 0C320 0 291 0 262 0C233 0 204 0 174.8 0C145.7 0 116.3 0 87.2 0C58 0 29 0 14.5 0L0 0Z" fill="#970042"></path><path d="M0 48L14.5 48.8C29 49.7 58 51.3 87.2 48.8C116.3 46.3 145.7 39.7 174.8 39.8C204 40 233 47 262 48.7C291 50.3 320 46.7 349 44.3C378 42 407 41 436.2 40.7C465.3 40.3 494.7 40.7 523.8 39.7C553 38.7 582 36.3 611 37.3C640 38.3 669 42.7 698 43.3C727 44 756 41 785.2 41.5C814.3 42 843.7 46 872.8 45.2C902 44.3 931 38.7 945.5 35.8L960 33L960 0L945.5 0C931 0 902 0 872.8 0C843.7 0 814.3 0 785.2 0C756 0 727 0 698 0C669 0 640 0 611 0C582 0 553 0 523.8 0C494.7 0 465.3 0 436.2 0C407 0 378 0 349 0C320 0 291 0 262 0C233 0 204 0 174.8 0C145.7 0 116.3 0 87.2 0C58 0 29 0 14.5 0L0 0Z" fill="#ae0036"></path><path d="M0 39L14.5 36C29 33 58 27 87.2 25.3C116.3 23.7 145.7 26.3 174.8 28.2C204 30 233 31 262 31.8C291 32.7 320 33.3 349 33.7C378 34 407 34 436.2 33.3C465.3 32.7 494.7 31.3 523.8 29C553 26.7 582 23.3 611 21.8C640 20.3 669 20.7 698 22.2C727 23.7 756 26.3 785.2 26.7C814.3 27 843.7 25 872.8 25.3C902 25.7 931 28.3 945.5 29.7L960 31L960 0L945.5 0C931 0 902 0 872.8 0C843.7 0 814.3 0 785.2 0C756 0 727 0 698 0C669 0 640 0 611 0C582 0 553 0 523.8 0C494.7 0 465.3 0 436.2 0C407 0 378 0 349 0C320 0 291 0 262 0C233 0 204 0 174.8 0C145.7 0 116.3 0 87.2 0C58 0 29 0 14.5 0L0 0Z" fill="#c10023"></path><path d="M0 11L14.5 11.8C29 12.7 58 14.3 87.2 15.5C116.3 16.7 145.7 17.3 174.8 18.5C204 19.7 233 21.3 262 20.7C291 20 320 17 349 15.2C378 13.3 407 12.7 436.2 11.5C465.3 10.3 494.7 8.7 523.8 7.7C553 6.7 582 6.3 611 8C640 9.7 669 13.3 698 14.5C727 15.7 756 14.3 785.2 14.5C814.3 14.7 843.7 16.3 872.8 17C902 17.7 931 17.3 945.5 17.2L960 17L960 0L945.5 0C931 0 902 0 872.8 0C843.7 0 814.3 0 785.2 0C756 0 727 0 698 0C669 0 640 0 611 0C582 0 553 0 523.8 0C494.7 0 465.3 0 436.2 0C407 0 378 0 349 0C320 0 291 0 262 0C233 0 204 0 174.8 0C145.7 0 116.3 0 87.2 0C58 0 29 0 14.5 0L0 0Z" fill="#cf0000"></path></svg>